<svg width="512" height="512" viewBox="0 0 512 512" fill="none" xmlns="http://www.w3.org/2000/svg">
  <defs>
    <linearGradient id="bg" x1="80" y1="72" x2="440" y2="448" gradientUnits="userSpaceOnUse">
      <stop offset="0" stop-color="#0F766E"/>
      <stop offset="1" stop-color="#14B8A6"/>
    </linearGradient>
    <linearGradient id="paper" x1="158" y1="120" x2="346" y2="378" gradientUnits="userSpaceOnUse">
      <stop offset="0" stop-color="#FFFDF7"/>
      <stop offset="1" stop-color="#F8FAFC"/>
    </linearGradient>
    <linearGradient id="accent" x1="282" y1="188" x2="394" y2="296" gradientUnits="userSpaceOnUse">
      <stop offset="0" stop-color="#F59E0B"/>
      <stop offset="1" stop-color="#FB7185"/>
    </linearGradient>
    <filter id="shadow" x="108" y="98" width="296" height="318" filterUnits="userSpaceOnUse" color-interpolation-filters="sRGB">
      <feFlood flood-opacity="0" result="BackgroundImageFix"/>
      <feColorMatrix in="SourceAlpha" type="matrix" values="0 0 0 0 0 0 0 0 0 0 0 0 0 0 0 0 0 0 127 0" result="hardAlpha"/>
      <feOffset dy="12"/>
      <feGaussianBlur stdDeviation="14"/>
      <feColorMatrix type="matrix" values="0 0 0 0 0.0431 0 0 0 0 0.1765 0 0 0 0 0.1922 0 0 0 0.18 0"/>
      <feBlend mode="normal" in2="BackgroundImageFix" result="effect1_dropShadow_0_1"/>
      <feBlend mode="normal" in="SourceGraphic" in2="effect1_dropShadow_0_1" result="shape"/>
    </filter>
  </defs>

  <rect x="48" y="48" width="416" height="416" rx="104" fill="url(#bg)"/>
  <circle cx="118" cy="118" r="10" fill="#99F6E4" fill-opacity="0.9"/>
  <circle cx="396" cy="118" r="8" fill="#FDE68A" fill-opacity="0.9"/>
  <circle cx="398" cy="392" r="12" fill="#A7F3D0" fill-opacity="0.75"/>
  <path d="M104 374C144 334 191 314 245 314" stroke="#99F6E4" stroke-width="10" stroke-linecap="round" stroke-opacity="0.35"/>
  <path d="M312 112C349 128 381 156 404 196" stroke="#FDE68A" stroke-width="10" stroke-linecap="round" stroke-opacity="0.35"/>

  <rect x="140" y="122" width="188" height="240" rx="30" transform="rotate(-7 140 122)" fill="#CCFBF1" fill-opacity="0.55"/>

  <g filter="url(#shadow)">
    <rect x="152" y="126" width="208" height="260" rx="30" fill="url(#paper)"/>
    <rect x="176" y="156" width="62" height="12" rx="6" fill="#0F766E" fill-opacity="0.18"/>
    <rect x="176" y="182" width="112" height="12" rx="6" fill="#0F766E" fill-opacity="0.12"/>
    <rect x="176" y="226" width="96" height="12" rx="6" fill="#0F766E" fill-opacity="0.14"/>
    <rect x="176" y="254" width="128" height="12" rx="6" fill="#0F766E" fill-opacity="0.12"/>
    <rect x="176" y="282" width="88" height="12" rx="6" fill="#0F766E" fill-opacity="0.12"/>

    <rect x="176" y="316" width="160" height="42" rx="16" fill="#0F766E" fill-opacity="0.08"/>
    <path d="M204 337H228" stroke="#0F766E" stroke-width="8" stroke-linecap="round" stroke-opacity="0.35"/>
    <path d="M254 337H306" stroke="#0F766E" stroke-width="8" stroke-linecap="round" stroke-opacity="0.22"/>

    <path d="M248 206L225 230L248 254" stroke="#0F766E" stroke-width="10" stroke-linecap="round" stroke-linejoin="round"/>
    <path d="M284 206L307 230L284 254" stroke="#0F766E" stroke-width="10" stroke-linecap="round" stroke-linejoin="round"/>
    <path d="M262 259L270 201" stroke="#14B8A6" stroke-width="10" stroke-linecap="round"/>
  </g>

  <g transform="translate(314 158)">
    <circle cx="54" cy="54" r="54" fill="url(#accent)"/>
    <path d="M27 64L63 28" stroke="#FFF7ED" stroke-width="12" stroke-linecap="round"/>
    <path d="M72 20L82 30" stroke="#FFF7ED" stroke-width="12" stroke-linecap="round"/>
    <path d="M21 74L31 84" stroke="#FFF7ED" stroke-width="12" stroke-linecap="round"/>
    <path d="M74 64L84 74" stroke="#FFF7ED" stroke-width="12" stroke-linecap="round"/>
    <path d="M52 8L52 24" stroke="#FFF7ED" stroke-width="10" stroke-linecap="round"/>
    <path d="M52 84L52 100" stroke="#FFF7ED" stroke-width="10" stroke-linecap="round"/>
    <path d="M8 52L24 52" stroke="#FFF7ED" stroke-width="10" stroke-linecap="round"/>
    <path d="M84 52L100 52" stroke="#FFF7ED" stroke-width="10" stroke-linecap="round"/>
  </g>
</svg>
